<!DOCTYPE svg PUBLIC "-//W3C//DTD SVG 1.1//EN" "http://www.w3.org/Graphics/SVG/1.1/DTD/svg11.dtd">
<!-- Uploaded to: SVG Repo, www.svgrepo.com, Transformed by: SVG Repo Mixer Tools -->
<svg fill="#9e53af" height="800px" width="800px" version="1.1" id="Filled_Icons" xmlns="http://www.w3.org/2000/svg" xmlns:xlink="http://www.w3.org/1999/xlink" x="0px" y="0px" viewBox="-12.72 -12.72 49.44 49.44" enable-background="new 0 0 24 24" xml:space="preserve" stroke="#9e53af" stroke-width="0.00024000000000000003">
<g id="SVGRepo_bgCarrier" stroke-width="0" transform="translate(0.2400000000000002,0.2400000000000002), scale(0.98)">
<path transform="translate(-12.72, -12.72), scale(1.545)" d="M16,30.77578496436278C19.42736109329625,31.028076447626383,22.822522501152797,29.462693193167777,25.285255087951594,27.06573610921998C27.623879592887512,24.78957238610682,28.3969003133829,21.497740096164385,28.852770875402854,18.26629028219748C29.29176272071195,15.154485671319854,29.565619367150337,11.787808017823604,27.808084170902198,9.18259942531586C26.108813368348635,6.663756613370802,22.768215807328684,6.27721687523418,19.96839879668855,5.096913914707324C16.948945182661788,3.8240199983315253,14.15597610202937,1.4990538620181857,10.928758262932597,2.0668778388114735C7.391647314283581,2.689227027914583,4.3365779272674345,5.120755380154786,2.453113211223574,8.178701265818535C0.5299387790288244,11.301118846699142,-0.38152653139720427,15.191617911895532,0.6835752945230755,18.70069892356528C1.6851336585202101,22.000429852244043,5.0870385210722056,23.643328159116738,7.795061100982766,25.77826540991976C10.388073633434306,27.822531616707714,12.706980207670336,30.53338247883295,16,30.77578496436278" fill="#d5d5d5" strokewidth="0"/>
</g>
<g id="SVGRepo_tracerCarrier" stroke-linecap="round" stroke-linejoin="round" stroke="#292929" stroke-width="1.152"> <g id="Contact-Us-Filled"> <path d="M1,1v17h4v4l8.5-4H22V1H1z M8,11H5V8h3V11z M13,11h-3V8h3V11z M18,11h-3V8h3V11z"/> </g> </g>
<g id="SVGRepo_iconCarrier"> <g id="Contact-Us-Filled"> <path d="M1,1v17h4v4l8.5-4H22V1H1z M8,11H5V8h3V11z M13,11h-3V8h3V11z M18,11h-3V8h3V11z"/> </g> </g>
</svg>