<!DOCTYPE svg PUBLIC "-//W3C//DTD SVG 1.1//EN" "http://www.w3.org/Graphics/SVG/1.1/DTD/svg11.dtd">
<!-- Uploaded to: SVG Repo, www.svgrepo.com, Transformed by: SVG Repo Mixer Tools -->
<svg fill="#d5d5d5;" width="204px" height="204px" viewBox="-10.32 -10.32 44.64 44.64" id="email" data-name="Flat Color" xmlns="http://www.w3.org/2000/svg" class="icon flat-color">
<g id="SVGRepo_bgCarrier" stroke-width="0" transform="translate(0,0), scale(1)">
<path transform="translate(-10.32, -10.32), scale(1.395)" d="M16,28.70030769938603C18.038459938077672,29.14118254998305,20.395243232954986,28.799826210220427,22.055161227061873,27.537145804940955C23.703233384151584,26.283476390769973,23.587350480812383,23.753219638043223,24.75316695667617,22.041874909589403C25.90965522325476,20.344223401395066,28.371079743018647,19.557615916349008,28.851560677413595,17.56046198495278C29.329541584321692,15.573699599540056,28.018361247849946,13.626333478425842,27.23151311945315,11.740448925676652C26.464664843042762,9.902499178333027,25.587670506154645,8.15204890909315,24.294260212740227,6.637715601764905C22.873090490397647,4.9738007119054,21.355222309484905,3.31829019137576,19.330067654045937,2.4893844295708796C17.182352957886494,1.6103142402505999,14.521669078925946,0.6669895500172238,12.502830453520016,1.8114254016139562C10.36278660332242,3.0245698676124606,10.857980408751885,6.496816124391314,9.145456429157615,8.262819747112951C7.6209780366918976,9.834905391422096,4.474728480841648,9.316537788918058,3.383745767428243,11.215285892582912C2.3259448487646317,13.056284346246212,3.8649083085569274,15.351775628234801,3.852324738880764,17.47499482174508C3.8376719470215996,19.947352802391986,1.600267083750303,22.97160764287826,3.3034485327578977,24.763796706714466C5.141248188172842,26.697639073231414,8.631214945182572,24.394902796211884,11.179368104326832,25.18494668709535C13.106921380702001,25.782576262416494,14.02753120631486,28.27370530780639,16,28.70030769938603" fill="#d5d5d5" strokewidth="0"/>
</g>
<g id="SVGRepo_tracerCarrier" stroke-linecap="round" stroke-linejoin="round" stroke="#CCCCCC" stroke-width="0.048"/>
<g id="SVGRepo_iconCarrier">
<rect id="primary" x="2" y="4" width="20" height="16" rx="2" style="fill: #292929;"/>
<path id="secondary" d="M21.25,4.45A2,2,0,0,0,20,4H4a2,2,0,0,0-1.25.45A1,1,0,0,0,2.76,6l8,6.29a2,2,0,0,0,2.48,0l8-6.29a1,1,0,0,0,0-1.56Z" style="fill: #9e53af;"/>
</g>
</svg>